<svg width="61" height="62" viewBox="0 0 61 62" fill="none" xmlns="http://www.w3.org/2000/svg">
<g opacity="0.5">
<path d="M49.5625 6.22424C49.5625 5.71867 49.3617 5.23381 49.0042 4.87632C48.6467 4.51883 48.1618 4.31799 47.6562 4.31799H13.3438C12.8382 4.31799 12.3533 4.51883 11.9958 4.87632C11.6383 5.23381 11.4375 5.71867 11.4375 6.22424V55.7867C11.4375 56.2923 11.6383 56.7772 11.9958 57.1347C12.3533 57.4922 12.8382 57.693 13.3438 57.693H47.6562C48.1618 57.693 48.6467 57.4922 49.0042 57.1347C49.3617 56.7772 49.5625 56.2923 49.5625 55.7867V6.22424ZM22.875 51.9742H17.1562V46.2555H22.875V51.9742ZM22.875 42.443H17.1562V36.7242H22.875V42.443ZM22.875 32.9117H17.1562V27.193H22.875V32.9117ZM33.3594 51.9742H27.6406V46.2555H33.3594V51.9742ZM33.3594 42.443H27.6406V36.7242H33.3594V42.443ZM33.3594 32.9117H27.6406V27.193H33.3594V32.9117ZM43.8438 51.9742H38.125V36.7242H43.8438V51.9742ZM43.8438 32.9117H38.125V27.193H43.8438V32.9117ZM43.8438 21.4742H17.1562V10.0367H43.8438V21.4742Z" fill="#B700FF"/>
</g>
</svg>
