<svg width="75" height="59" viewBox="0 0 75 59" fill="none" xmlns="http://www.w3.org/2000/svg">
<g clip-path="url(#clip0_4_17)">
<path d="M34.2009 27.0711C30.3614 50.6514 29.9881 53.2564 30.2192 53.6634C30.4502 54.0705 30.8058 54.1519 32.5833 54.1519H34.6631L34.9297 52.4423C35.0719 51.5198 36.8851 39.7432 38.9648 26.257C42.04 6.3128 42.6977 1.69984 42.52 1.37422C42.3422 1.0486 41.8623 0.967198 40.3869 0.967198H38.4671L34.2009 27.0711Z" fill="#B700FF"/>
<path d="M8.83493 6.96391C8.78161 7.18099 8.72828 10.1387 8.7105 13.5849L8.65718 19.8259L6.61297 19.9887C4.17769 20.1787 3.37778 20.5043 2.24013 21.6711C0.569214 23.3806 -0.0173851 26.5283 0.000390599 33.6648C0.000390599 38.7662 0.284802 41.6696 1.01361 43.8675C2.24013 47.5036 5.03093 48.372 7.64396 45.8755L8.65718 44.9258L9.01269 45.8755C9.20823 46.3911 9.49264 46.8795 9.63484 46.9881C10.097 47.2594 12.2301 47.4494 12.7278 47.2594L13.19 47.0966V35.4828C13.19 23.8148 12.7811 7.61515 12.4612 7.07245C12.3723 6.93677 11.5368 6.77396 10.6125 6.71969C9.2971 6.63829 8.90604 6.69256 8.83493 6.96391ZM8.74606 32.6879V40.5571L7.64396 41.3711C7.02181 41.8053 6.2219 42.2394 5.86639 42.348C5.22646 42.5379 5.20868 42.5379 5.01315 41.3983C4.87094 40.6385 4.83539 38.0607 4.87094 33.8276C4.92427 28.3734 4.9776 27.288 5.22646 26.5554C5.72418 25.1986 6.18635 24.8459 7.53731 24.8459H8.74606V32.6879Z" fill="#B700FF"/>
<path d="M52.6166 6.82837C52.5277 6.93691 52.4744 9.9489 52.4744 13.5036V19.9617H50.8923C47.7105 19.9617 45.8263 21.0471 44.9019 23.4079C44.0487 25.6058 43.8531 27.5053 43.8531 33.8006C43.8531 40.1502 44.102 42.4024 45.0797 44.6003C46.4129 47.6395 48.9192 48.2093 51.2479 46.0114L52.3855 44.9531L52.6521 45.5501C53.3454 47.0425 53.4343 47.1239 54.7141 47.2867C55.4252 47.3681 56.2073 47.3681 56.4562 47.2596L56.9183 47.0968V34.7503C56.9183 22.2139 56.545 7.61529 56.2073 7.09972C55.994 6.7741 52.7943 6.52989 52.6166 6.82837ZM52.4744 32.7152V40.5843L51.6211 41.2356C51.159 41.5883 50.4302 42.0225 50.0036 42.2124C48.6526 42.7551 48.6526 42.7552 48.6526 34.6689C48.6526 28.2379 48.6882 27.6138 49.0081 26.6098C49.4525 25.2531 49.968 24.846 51.3723 24.846H52.4744V32.7152Z" fill="#B700FF"/>
<path d="M14.8609 20.3687C14.7898 20.64 15.8208 25.85 17.5095 33.7734L20.2825 46.6897L19.4115 52.3609C18.9138 55.5086 18.5227 58.1406 18.5227 58.2492C18.5227 58.9276 21.6157 59.3075 22.1134 58.6833C22.3089 58.4391 26.8062 34.4246 29.1348 21.0199C29.1882 20.7214 29.046 20.4772 28.6371 20.2601C27.9972 19.9345 25.6508 19.8531 25.3308 20.1787C25.2064 20.2873 24.5131 24.4118 23.7843 29.2961C23.0378 34.2076 22.4156 38.2507 22.38 38.3049C22.3445 38.3592 21.6512 34.4246 20.8158 29.5675C19.6426 22.6209 19.2515 20.6672 18.9849 20.4501C18.8071 20.2873 17.8295 20.0973 16.8162 20.0159C15.1809 19.9074 14.9676 19.9345 14.8609 20.3687Z" fill="#B700FF"/>
<path d="M60.1891 20.3687C60.118 20.5858 60.9534 23.1365 62.1266 26.257C63.2465 29.2961 64.2597 32.0368 64.3664 32.3895C64.5619 32.9593 64.3486 33.6649 61.9844 39.7974C60.5446 43.542 59.4069 46.6354 59.4603 46.7168C59.6202 46.961 61.6645 47.368 62.8021 47.368C63.6909 47.368 64.0286 47.2595 64.2419 46.8796C64.3841 46.6354 65.0952 44.7902 65.8062 42.8094C66.535 40.8556 67.1572 39.2275 67.2105 39.2275C67.2816 39.2275 67.9393 40.937 68.6859 42.9993C70.2501 47.2324 69.9835 46.961 72.6499 47.2595C74.4097 47.4766 75.1385 47.2866 74.9785 46.6354C74.9074 46.3912 73.7342 43.2164 72.3477 39.5532L69.8591 32.9593L71.7255 26.7997C73.2187 21.8611 73.5387 20.5858 73.3431 20.423C72.8987 20.0431 70.0013 19.8531 69.5924 20.1787C69.3791 20.3687 68.8281 21.8883 68.1882 24.0319C67.6193 25.9585 67.1038 27.5595 67.0505 27.5595C66.9972 27.5595 66.4284 25.9856 65.7707 24.0591L64.5619 20.5586L63.6731 20.2602C62.3044 19.7989 60.3135 19.8803 60.1891 20.3687Z" fill="#B700FF"/>
</g>
<defs>
<clipPath id="clip0_4_17">
<rect width="75" height="59" fill="white"/>
</clipPath>
</defs>
</svg>
