<svg width="69" height="70" viewBox="0 0 69 70" fill="none" xmlns="http://www.w3.org/2000/svg">
<g opacity="0.5">
<path d="M23 6.25549V43.6305H48.2713C48.6105 42.8887 48.9363 42.1221 49.2487 41.3305C52.6786 32.6624 54.2541 21.953 54.6279 14.731L54.7774 11.8617L60.5187 12.1579L60.3721 15.03C59.9783 22.62 58.3338 33.9992 54.5934 43.4465L54.5215 43.6305H63.25V49.3805H51.7931C50.4246 51.8041 48.8347 54.0092 46.9919 55.8291C43.6569 59.1152 39.4306 61.1766 34.3131 60.846C29.7994 60.5527 26.0705 58.6236 23 55.7687V63.7555H17.25V49.3805H5.75V43.6305H14.9586C14.767 43.1935 14.5849 42.7555 14.4124 42.3166C10.6749 33.039 9.02463 22.2002 8.63075 15.0386L8.47263 12.1694L14.2111 11.8531L14.3693 14.7224C14.7389 20.7634 15.7039 26.7533 17.25 32.6049V6.25549H23ZM24.8975 49.3805C27.6517 52.796 30.9062 54.8631 34.6869 55.1075C37.8494 55.3145 40.5404 54.1127 42.9525 51.7322C43.6559 51.0384 44.3287 50.2545 44.9707 49.3805H24.8975Z" fill="#B700FF"/>
</g>
</svg>
