<svg width="25" height="25" viewBox="0 0 25 25" fill="none" xmlns="http://www.w3.org/2000/svg">
<path d="M8.22745 16.4549H8.24082M12.3515 16.4549H12.3566M16.4704 16.4549H16.4755M16.4704 12.3411H16.4755M8.23774 12.3411H8.24288M12.3515 12.3411H12.3566M16.4755 8.22739H16.4806M8.24288 8.22739H8.24802M12.3566 8.22739H12.3618M7.19902 4.11365H6.17058C5.62506 4.11365 5.10189 4.33035 4.71615 4.71609C4.33041 5.10183 4.11371 5.625 4.11371 6.17052V18.5118C4.11371 19.0573 4.33041 19.5804 4.71615 19.9662C5.10189 20.3519 5.62506 20.5686 6.17058 20.5686H7.19902M17.4834 4.11365H18.5118C19.0573 4.11365 19.5805 4.33035 19.9662 4.71609C20.352 5.10183 20.5687 5.625 20.5687 6.17052V18.5118C20.5687 19.0573 20.352 19.5804 19.9662 19.9662C19.5805 20.3519 19.0573 20.5686 18.5118 20.5686H17.4834" stroke="#B700FF" stroke-width="2.05687" stroke-linecap="square" stroke-linejoin="round"/>
</svg>
