<svg width="24" height="25" viewBox="0 0 24 25" fill="none" xmlns="http://www.w3.org/2000/svg">
<g opacity="0.4">
<path d="M11 9.50549H13V7.50549H11M12 20.5055C7.59 20.5055 4 16.9155 4 12.5055C4 8.09549 7.59 4.50549 12 4.50549C16.41 4.50549 20 8.09549 20 12.5055C20 16.9155 16.41 20.5055 12 20.5055ZM12 2.50549C10.6868 2.50549 9.38642 2.76415 8.17317 3.2667C6.95991 3.76924 5.85752 4.50584 4.92893 5.43443C3.05357 7.30979 2 9.85333 2 12.5055C2 15.1577 3.05357 17.7012 4.92893 19.5766C5.85752 20.5051 6.95991 21.2417 8.17317 21.7443C9.38642 22.2468 10.6868 22.5055 12 22.5055C14.6522 22.5055 17.1957 21.4519 19.0711 19.5766C20.9464 17.7012 22 15.1577 22 12.5055C22 11.1923 21.7413 9.89191 21.2388 8.67866C20.7362 7.4654 19.9997 6.36301 19.0711 5.43443C18.1425 4.50584 17.0401 3.76924 15.8268 3.2667C14.6136 2.76415 13.3132 2.50549 12 2.50549ZM11 17.5055H13V11.5055H11V17.5055Z" fill="black"/>
</g>
</svg>
