<svg width="65" height="66" viewBox="0 0 65 66" fill="none" xmlns="http://www.w3.org/2000/svg">
<g opacity="0.5">
<path d="M5.41663 5.92218H16.25V11.3388H10.8333V54.6722H16.25V60.0889H5.41663V5.92218ZM54.1666 11.3388H48.75V5.92218H59.5833V60.0889H48.75V54.6722H54.1666V11.3388ZM24.375 14.0472H27.0833V27.5888H29.7916V30.2972H21.6666V27.5888H24.375V16.7555L21.6666 18.1097V15.4013L24.375 14.0472ZM40.625 35.7138H43.3333V49.2555H46.0416V51.9638H37.9166V49.2555H40.625V38.4222L37.9166 39.7763V37.068L40.625 35.7138ZM24.375 35.7138C27.3541 35.7138 29.7916 39.343 29.7916 43.8388C29.7916 48.3347 27.3541 51.9638 24.375 51.9638C21.3958 51.9638 18.9583 48.3347 18.9583 43.8388C18.9583 39.343 21.3958 35.7138 24.375 35.7138ZM24.375 38.4222C22.8854 38.4222 21.6666 40.8597 21.6666 43.8388C21.6666 46.818 22.8854 49.2555 24.375 49.2555C25.8645 49.2555 27.0833 46.818 27.0833 43.8388C27.0833 40.8597 25.8645 38.4222 24.375 38.4222ZM40.625 14.0472C43.6041 14.0472 46.0416 17.6763 46.0416 22.1722C46.0416 26.668 43.6041 30.2972 40.625 30.2972C37.6458 30.2972 35.2083 26.668 35.2083 22.1722C35.2083 17.6763 37.6458 14.0472 40.625 14.0472ZM40.625 16.7555C39.1354 16.7555 37.9166 19.193 37.9166 22.1722C37.9166 25.1513 39.1354 27.5888 40.625 27.5888C42.1145 27.5888 43.3333 25.1513 43.3333 22.1722C43.3333 19.193 42.1145 16.7555 40.625 16.7555Z" fill="#B700FF"/>
</g>
</svg>
